<svg xmlns="http://www.w3.org/2000/svg" width="18" height="18" viewBox="0 0 18 18">
  <path fill="#4285F4" d="M17.64 9.2045c0-.6395-.0573-1.2518-.1636-1.835H9v3.471h4.844c-.2091 1.1255-.8436 2.0818-1.7955 2.7218v2.2582h2.9091c1.7045-1.5709 2.6818-3.8845 2.6818-6.6164z"/>
  <path fill="#34A853" d="M9 18c2.43 0 4.47-.8055 5.96-2.1791l-2.9091-2.2582c-.8055.5409-1.8346.8582-3.0509.8582-2.3473 0-4.3373-1.5837-5.0491-3.7082H.9564v2.3327C2.4382 15.8482 5.4818 18 9 18z"/>
  <path fill="#FBBC05" d="M3.9509 10.7127c-.1836-.5409-.2882-1.1191-.2882-1.7127s.1045-1.1718.2882-1.7127V4.9545H.9564C.3473 6.17 0 7.5473 0 9s.3473 2.83.9564 4.0455l2.9945-2.3327z"/>
  <path fill="#EA4335" d="M9 3.5455c1.3191 0 2.5055.4546 3.4373 1.3491l2.5818-2.5818C13.47.6727 11.43 0 9 0 5.4818 0 2.4382 2.1518.9564 4.9545l2.9945 2.3327C4.6627 5.1291 6.6527 3.5455 9 3.5455z"/>
</svg>